<?xml version="1.0" encoding="utf-8"?>
<!-- Generator: Adobe Illustrator 17.0.2, SVG Export Plug-In . SVG Version: 6.00 Build 0)  -->
<!DOCTYPE svg PUBLIC "-//W3C//DTD SVG 1.1//EN" "http://www.w3.org/Graphics/SVG/1.1/DTD/svg11.dtd">
<svg version="1.1" id="Layer_1" xmlns="http://www.w3.org/2000/svg" xmlns:xlink="http://www.w3.org/1999/xlink" x="0px" y="0px"
	 width="544.594px" height="128.775px" viewBox="0 0 544.594 128.775" enable-background="new 0 0 544.594 128.775"
	 xml:space="preserve">
<g>
	<path fill="#3A302A" d="M283.278,60.439h0.385c1.215,0,1.823,0.352,1.823,1.055l-3.312,31.681
		c-0.097,0.704-0.769,1.056-2.017,1.056h-0.384c-1.216,0-1.824-0.352-1.824-1.056l3.312-31.681
		C281.326,60.791,281.998,60.439,283.278,60.439z"/>
	<path fill="#3A302A" d="M311.119,74.982l-1.393,14.016c0,0.961,0.192,1.537,0.576,1.729c0.352,0.16,0.735,0.24,1.152,0.24
		l1.296-0.24c0.191,0,0.288,0.176,0.288,0.528s-0.057,0.84-0.168,1.464c-0.113,0.624-0.48,1.064-1.104,1.32s-1.224,0.384-1.8,0.384
		c-2.88,0-4.32-1.567-4.32-4.704c0-0.576,0.224-2.952,0.672-7.128c0.448-4.177,0.673-6.392,0.673-6.647
		c0-2.465-1.217-3.697-3.648-3.697c-1.312,0-2.681,0.594-4.104,1.777s-2.6,3.168-3.527,5.951l-1.393,13.2
		c-0.096,0.704-0.768,1.056-2.016,1.056h-0.192c-1.216,0-1.823-0.336-1.823-1.008c1.407-12.512,2.111-19.52,2.111-21.023
		l-0.048-1.633c0-0.735,0.896-1.104,2.688-1.104c0.831,0,1.248,1.199,1.248,3.6c0,0.16-0.017,0.336-0.049,0.528
		c2.368-3.231,5.216-4.849,8.545-4.849C309.007,68.742,311.119,70.823,311.119,74.982z"/>
	<path fill="#3A302A" d="M339.774,90.967l1.296-0.24c0.191,0,0.288,0.176,0.288,0.528s-0.057,0.84-0.168,1.464
		c-0.113,0.624-0.48,1.064-1.104,1.32s-1.224,0.384-1.8,0.384c-2.88,0-4.32-1.567-4.32-4.704v-0.48
		c-1.856,3.457-4.433,5.185-7.728,5.185c-2.049,0-3.984-0.672-5.809-2.017c-0.96-0.735-1.736-1.815-2.327-3.239
		c-0.593-1.424-0.889-3.128-0.889-5.112c0-4.512,1.104-8.191,3.312-11.04c2.208-2.848,5.119-4.272,8.735-4.272
		c2.624,0,4.801,0.721,6.528,2.16l1.296-11.808c0.096-0.704,0.769-1.056,2.017-1.056h0.191c1.216,0,1.824,0.352,1.824,1.056
		c-2.048,18.977-3.072,28.824-3.072,29.544c0,0.721,0.048,1.225,0.145,1.512c0.096,0.289,0.256,0.48,0.479,0.576
		C338.989,90.887,339.357,90.967,339.774,90.967z M335.454,74.07c-1.536-1.215-3.257-1.824-5.16-1.824
		c-1.904,0-3.425,0.32-4.56,0.961c-1.137,0.641-2.009,1.535-2.616,2.688c-1.12,2.177-1.68,4.688-1.68,7.536
		c0,2.849,0.479,4.809,1.439,5.88c0.96,1.072,2.384,1.608,4.272,1.608c1.312,0,2.64-0.624,3.983-1.872
		c1.345-1.248,2.479-3.295,3.408-6.145L335.454,74.07z"/>
	<path fill="#3A302A" d="M351.806,58.039h0.191c1.216,0,1.824,0.352,1.824,1.056l-1.536,14.64c1.888-3.327,4.432-4.992,7.632-4.992
		c2.017,0,3.937,0.656,5.76,1.969c0.961,0.672,1.736,1.721,2.328,3.145s0.889,3.127,0.889,5.111c0,4.512-1.169,8.217-3.504,11.111
		c-2.337,2.896-5.408,4.345-9.217,4.345c-2.464,0-4.592-0.864-6.384-2.593c-0.448,1.602-1.12,2.4-2.016,2.4h-0.384
		c-0.801,0-1.2-0.352-1.2-1.056l3.6-34.08C349.885,58.391,350.558,58.039,351.806,58.039z M350.558,89.047
		c1.471,1.248,3.136,1.872,4.991,1.872s3.4-0.328,4.633-0.984c1.231-0.655,2.167-1.56,2.808-2.712
		c1.152-2.144,1.728-4.8,1.728-7.968c0-4.672-1.904-7.009-5.712-7.009c-1.312,0-2.64,0.617-3.983,1.849
		c-1.345,1.232-2.48,3.272-3.408,6.12l-0.672,6.432C350.846,87.352,350.717,88.151,350.558,89.047z"/>
	<path fill="#3A302A" d="M390.356,89.238c0.64-0.415,1.024-0.623,1.152-0.623c0.224,0,0.336,0.248,0.336,0.744
		s-0.08,1.16-0.24,1.991c-0.191,0.992-1.184,1.752-2.976,2.28c-1.793,0.527-3.425,0.792-4.896,0.792
		c-7.231,0-10.848-3.312-10.848-9.937c0-4.639,1.088-8.424,3.264-11.352s5.488-4.393,9.937-4.393c2.72,0,4.743,0.681,6.072,2.041
		c1.327,1.359,1.991,2.824,1.991,4.392c0,1.568-0.359,2.944-1.08,4.128c-0.72,1.184-1.72,2.096-3,2.736
		c-2.464,1.248-5.424,1.871-8.88,1.871c-1.568,0-2.944-0.111-4.128-0.336v0.48c0,2.528,0.601,4.312,1.8,5.352
		c1.2,1.041,2.936,1.561,5.208,1.561S388.436,90.391,390.356,89.238z M385.652,72.199c-4.8,0-7.584,2.752-8.352,8.256h3.408
		c2.72,0,4.879-0.352,6.479-1.057c0.704-0.319,1.345-0.815,1.92-1.488c0.576-0.672,0.864-1.471,0.864-2.399
		c0-0.928-0.393-1.712-1.176-2.353C388.013,72.52,386.965,72.199,385.652,72.199z"/>
	<path fill="#3A302A" d="M400.636,72.199l-0.048-1.633c0-0.735,0.896-1.104,2.688-1.104c0.832,0,1.248,1.199,1.248,3.6
		c0,0.129-0.016,0.288-0.048,0.48c0.769-1.504,1.72-2.68,2.856-3.528c1.136-0.847,2.312-1.272,3.527-1.272
		c1.601,0,2.4,0.609,2.4,1.824c0,0.576-0.16,1.169-0.479,1.776c-0.32,0.608-0.624,0.912-0.912,0.912
		c-0.064,0-0.272-0.088-0.624-0.265c-0.353-0.175-0.769-0.264-1.248-0.264c-1.089,0-2.185,0.576-3.288,1.729
		c-1.104,1.152-2.04,3.104-2.809,5.855l-1.344,12.864c-0.096,0.704-0.768,1.056-2.016,1.056h-0.192
		c-1.216,0-1.824-0.336-1.824-1.008C399.932,80.742,400.636,73.734,400.636,72.199z"/>
	<path fill="#3A302A" d="M431.796,89.238c0.64-0.415,1.024-0.623,1.152-0.623c0.224,0,0.336,0.248,0.336,0.744
		s-0.08,1.16-0.24,1.991c-0.191,0.992-1.184,1.752-2.976,2.28c-1.793,0.527-3.425,0.792-4.896,0.792
		c-7.231,0-10.848-3.312-10.848-9.937c0-4.639,1.088-8.424,3.264-11.352s5.488-4.393,9.937-4.393c2.72,0,4.743,0.681,6.072,2.041
		c1.327,1.359,1.991,2.824,1.991,4.392c0,1.568-0.359,2.944-1.08,4.128c-0.72,1.184-1.72,2.096-3,2.736
		c-2.464,1.248-5.424,1.871-8.88,1.871c-1.568,0-2.944-0.111-4.128-0.336v0.48c0,2.528,0.601,4.312,1.8,5.352
		c1.2,1.041,2.936,1.561,5.208,1.561S429.876,90.391,431.796,89.238z M427.092,72.199c-4.8,0-7.584,2.752-8.352,8.256h3.408
		c2.72,0,4.879-0.352,6.479-1.057c0.704-0.319,1.345-0.815,1.92-1.488c0.576-0.672,0.864-1.471,0.864-2.399
		c0-0.928-0.393-1.712-1.176-2.353C429.452,72.52,428.404,72.199,427.092,72.199z"/>
	<path fill="#3A302A" d="M445.676,62.935h0.191c1.216,0,1.824,0.353,1.824,1.056l-0.528,5.041h4.08c0.512,0,0.769,0.305,0.769,0.912
		c0,0.641-0.225,1.224-0.673,1.752c-0.448,0.527-0.943,0.791-1.487,0.791h-3.072c-1.088,9.857-1.632,15.104-1.632,15.744
		c0,1.824,0.768,2.736,2.304,2.736c0.576,0,1.072-0.056,1.488-0.168c0.415-0.111,0.64-0.168,0.672-0.168
		c0.224,0,0.336,0.2,0.336,0.6c0,0.4-0.08,0.937-0.24,1.608c-0.256,1.056-1.344,1.584-3.264,1.584c-3.584,0-5.376-1.76-5.376-5.28
		l1.68-16.656h-2.399c-0.545,0-0.816-0.432-0.816-1.295c0-1.44,0.399-2.16,1.2-2.16h2.399l0.576-5.041
		C443.804,63.287,444.459,62.935,445.676,62.935z"/>
	<path fill="#3A302A" d="M476.012,74.982l-1.393,14.016c0,0.961,0.192,1.537,0.576,1.729c0.352,0.16,0.735,0.24,1.152,0.24
		l1.296-0.24c0.191,0,0.288,0.176,0.288,0.528s-0.057,0.84-0.168,1.464c-0.113,0.624-0.48,1.064-1.104,1.32s-1.224,0.384-1.8,0.384
		c-2.88,0-4.32-1.567-4.32-4.704c0-0.576,0.224-2.952,0.672-7.128c0.448-4.177,0.673-6.392,0.673-6.647
		c0-2.465-1.217-3.697-3.648-3.697c-1.312,0-2.681,0.594-4.104,1.777s-2.6,3.168-3.527,5.951l-1.393,13.2
		c-0.096,0.704-0.768,1.056-2.016,1.056h-0.192c-1.216,0-1.823-0.336-1.823-1.008c1.407-12.512,2.111-19.52,2.111-21.023
		l-0.048-1.633c0-0.735,0.896-1.104,2.688-1.104c0.831,0,1.248,1.199,1.248,3.6c0,0.16-0.017,0.336-0.049,0.528
		c2.368-3.231,5.216-4.849,8.545-4.849C473.899,68.742,476.012,70.823,476.012,74.982z"/>
	<path fill="#3A302A" d="M488.923,90.967l1.296-0.24c0.192,0,0.288,0.176,0.288,0.528s-0.057,0.84-0.168,1.464
		c-0.112,0.624-0.48,1.064-1.104,1.32s-1.224,0.384-1.8,0.384c-2.849,0-4.271-1.52-4.271-4.56c0-1.152,0.319-4.752,0.96-10.801
		c0.64-6.048,0.976-9.072,1.008-9.072c0.096-0.703,0.768-1.056,2.016-1.056h0.192c1.216,0,1.824,0.353,1.824,1.056
		c-1.28,11.713-1.921,17.961-1.921,18.744c0,0.785,0.097,1.328,0.288,1.633c0.192,0.305,0.385,0.479,0.576,0.527
		C488.299,90.943,488.57,90.967,488.923,90.967z M488.106,58.039h0.576c1.216,0,1.824,0.352,1.824,1.056l-0.288,2.832
		c0,0.704-0.608,1.056-1.824,1.056h-0.576c-1.344,0-2.016-0.352-2.016-1.056l0.288-2.832
		C486.186,58.391,486.858,58.039,488.106,58.039z"/>
	<path fill="#3A302A" d="M516.467,74.982l-1.393,14.016c0,0.961,0.192,1.537,0.576,1.729c0.352,0.16,0.735,0.24,1.152,0.24
		l1.296-0.24c0.191,0,0.288,0.176,0.288,0.528s-0.057,0.84-0.168,1.464c-0.113,0.624-0.48,1.064-1.104,1.32s-1.224,0.384-1.8,0.384
		c-2.88,0-4.32-1.567-4.32-4.704c0-0.576,0.224-2.952,0.672-7.128c0.448-4.177,0.673-6.392,0.673-6.647
		c0-2.465-1.217-3.697-3.648-3.697c-1.312,0-2.681,0.594-4.104,1.777s-2.6,3.168-3.527,5.951l-1.393,13.2
		c-0.096,0.704-0.768,1.056-2.016,1.056h-0.192c-1.216,0-1.823-0.336-1.823-1.008c1.407-12.512,2.111-19.52,2.111-21.023
		l-0.048-1.633c0-0.735,0.896-1.104,2.688-1.104c0.831,0,1.248,1.199,1.248,3.6c0,0.16-0.017,0.336-0.049,0.528
		c2.368-3.231,5.216-4.849,8.545-4.849C514.354,68.742,516.467,70.823,516.467,74.982z"/>
	<path fill="#3A302A" d="M530.817,104.311c-2.304,0-4.256-0.368-5.855-1.104c-1.601-0.736-2.4-1.505-2.4-2.305
		c0-1.76,0.224-2.64,0.672-2.64c0.064,0,0.392,0.216,0.984,0.647c0.592,0.433,1.472,0.865,2.64,1.297s2.488,0.648,3.96,0.648
		c2.336,0,4.128-0.93,5.376-2.785s2.048-4.896,2.4-9.119c-1.856,3.455-4.433,5.184-7.728,5.184c-1.889,0-3.648-0.655-5.28-1.968
		c-0.896-0.704-1.616-1.753-2.16-3.144c-0.545-1.393-0.816-3.049-0.816-4.969c0-4.512,1.096-8.191,3.288-11.04
		c2.191-2.848,5.096-4.272,8.712-4.272c2.336,0,4.448,0.865,6.336,2.593c0.192-0.608,0.353-1.04,0.48-1.296
		c0.384-0.736,0.943-1.104,1.68-1.104h0.288c0.8,0,1.2,0.337,1.2,1.009l-2.064,19.439c-0.575,5.568-1.784,9.447-3.624,11.641
		C537.065,103.215,534.37,104.311,530.817,104.311z M534.994,72.246c-5.473,0-8.208,3.841-8.208,11.521
		c0,4.577,1.663,6.864,4.991,6.864c1.312,0,2.647-0.64,4.009-1.92c1.359-1.279,2.503-3.376,3.432-6.288l0.624-5.904
		c0.063-0.575,0.192-1.376,0.384-2.399C538.561,72.871,536.817,72.246,534.994,72.246z"/>
</g>
<polygon fill="#F08B21" points="226.483,123.389 214.413,128.775 227.959,6.929 237.819,15.42 "/>
<g>
	<defs>
		<rect id="SVGID_1_" x="0" y="0" width="164.378" height="104.354"/>
	</defs>
	<clipPath id="SVGID_2_">
		<use xlink:href="#SVGID_1_"  overflow="visible"/>
	</clipPath>
	<path clip-path="url(#SVGID_2_)" fill="#897F72" d="M64.444,0.003c2.945,0,5.332,2.523,5.332,5.636
		c0,3.111-2.387,5.635-5.332,5.635c-2.945,0-5.332-2.524-5.332-5.635C59.112,2.526,61.499,0.003,64.444,0.003"/>
	<path clip-path="url(#SVGID_2_)" fill="#897F72" d="M52.106,21.147c0,3.106-2.383,5.626-5.32,5.626s-5.317-2.52-5.317-5.626
		c0-3.101,2.381-5.618,5.317-5.618C49.724,15.529,52.106,18.047,52.106,21.147"/>
	<path clip-path="url(#SVGID_2_)" fill="#897F72" d="M69.842,19.585c0,3.181-2.434,5.748-5.438,5.748
		c-3.011,0-5.445-2.567-5.445-5.748c0-3.174,2.435-5.755,5.445-5.755C67.408,13.831,69.842,16.412,69.842,19.585"/>
	<path clip-path="url(#SVGID_2_)" fill="#897F72" d="M87.447,21.107c0,3.187-2.451,5.771-5.468,5.771
		c-3.011,0-5.461-2.585-5.461-5.771c0-3.19,2.45-5.778,5.461-5.778C84.996,15.329,87.447,17.917,87.447,21.107"/>
	<path clip-path="url(#SVGID_2_)" fill="#897F72" d="M69.831,33.057c0,3.176-2.431,5.754-5.438,5.754
		c-3.009,0-5.445-2.578-5.445-5.754c0-3.175,2.437-5.754,5.445-5.754C67.4,27.303,69.831,29.882,69.831,33.057"/>
	<path clip-path="url(#SVGID_2_)" fill="#897F72" d="M83.094,33.855c0,3.227-2.473,5.834-5.521,5.834
		c-3.041,0-5.516-2.607-5.516-5.834c0-3.22,2.475-5.829,5.516-5.829C80.621,28.026,83.094,30.636,83.094,33.855"/>
	<path clip-path="url(#SVGID_2_)" fill="#897F72" d="M51.233,28.255c2.919,0,5.286,2.501,5.286,5.586
		c0,3.086-2.367,5.586-5.286,5.586c-2.919,0-5.286-2.5-5.286-5.586C45.947,30.756,48.314,28.255,51.233,28.255"/>
	<path clip-path="url(#SVGID_2_)" fill="#3C332B" d="M0,53.753c0-1.658,14.592-1.791,14.926-0.397c0,0,5.34,30.507,5.473,31.635
		h0.399c1.657-5.506,11.84-31.635,11.84-31.635c0.598-1.394,13.931-1.326,13.931,0.199c0,0.53-0.135,1.094-0.397,1.69
		l-20.697,48.063c-0.597,1.393-13.997,1.393-14.328,0L0.199,55.246C0.066,54.451,0,53.953,0,53.753"/>
	<path clip-path="url(#SVGID_2_)" fill="#3C332B" d="M82.628,61.988l0.579-7.842c0.891-1.787,13.938-0.862,14.004,0.289
		c0.046,0.792-0.355,5.714-0.355,5.714c0.039-3.704,9.067-6.559,13.446-6.559c1.321,0,1.925-0.116,2.51,0.074
		c0.795,0.262-1.042,12.269-1.947,12.543c-1.713,0.521-3.069,0.359-5.884,1.083c-3.704,0.952-7.894,3.683-8.763,6.052l-2.877,29.381
		c-0.197,2.123-15.053,1.523-14.726,0.099C78.615,102.822,82.292,64.205,82.628,61.988"/>
	<path clip-path="url(#SVGID_2_)" fill="#3C332B" d="M138.806,31.664l-4.18,40.589l0.398,0.102l13.93-19.197
		c0.997-1.26,15.424-1.424,15.424-0.497c0,0.466-0.396,1.16-1.192,2.09l-15.822,20.888l13.534,25.674
		c0.33,0.663,0.766,1.671,0.497,2.13c-0.468,0.795-15.125,1.161-15.724-0.102l-11.441-23.224l-0.398,0.099l-2.289,22.342
		c-0.198,2.122-14.727,2.122-14.727,0l7.266-70.892C124.277,29.541,138.806,29.541,138.806,31.664"/>
	<path clip-path="url(#SVGID_2_)" fill="#3C332B" d="M70.71,54.351c0.2-1.992-14.527-2.022-14.727,0.101L54.41,70.43l-3.314,32.125
		c0,2.122,14.529,2.122,14.727,0l2.288-22.342l0.796-7.961l0.739-7.387C69.975,61.64,70.329,58.135,70.71,54.351"/>
</g>
</svg>
