<?xml version="1.0" encoding="utf-8"?>
<!-- Generator: Adobe Illustrator 17.0.2, SVG Export Plug-In . SVG Version: 6.00 Build 0)  -->
<!DOCTYPE svg PUBLIC "-//W3C//DTD SVG 1.1//EN" "http://www.w3.org/Graphics/SVG/1.1/DTD/svg11.dtd">
<svg version="1.1" id="Lag_1" xmlns="http://www.w3.org/2000/svg" xmlns:xlink="http://www.w3.org/1999/xlink" x="0px" y="0px"
	 width="78px" height="63px" viewBox="0 0 78 63" enable-background="new 0 0 78 63" xml:space="preserve">
<path fill="#3A302A" d="M78,58c0,2.761-2.239,5-5,5H5c-2.761,0-5-2.239-5-5V5c0-2.761,2.239-5,5-5h68c2.761,0,5,2.239,5,5V58z"/>
<path fill="#FFFFFF" d="M60,19c0,1.657-1.343,3-3,3H21c-1.657,0-3-1.343-3-3l0,0c0-1.657,1.343-3,3-3h36C58.657,16,60,17.343,60,19
	L60,19z"/>
<path fill="#FFFFFF" d="M60,32c0,1.657-1.343,3-3,3H21c-1.657,0-3-1.343-3-3l0,0c0-1.657,1.343-3,3-3h36C58.657,29,60,30.343,60,32
	L60,32z"/>
<path fill="#FFFFFF" d="M60,45c0,1.657-1.343,3-3,3H21c-1.657,0-3-1.343-3-3l0,0c0-1.657,1.343-3,3-3h36C58.657,42,60,43.343,60,45
	L60,45z"/>
</svg>
